<svg id="isologo" xmlns="http://www.w3.org/2000/svg" viewBox="0 0 32 32"><defs><style>.cls-1{fill:#0070f3;}</style></defs><title>ISO</title><path class="cls-1" d="M13.2,23.82a9.08,9.08,0,0,1-1.07-3.77A29.41,29.41,0,0,0,11,16.37a1.77,1.77,0,0,0-1.81-1.21,2,2,0,0,0-1.73,1.19c-.94,1.61-1.13,3.44-1.7,5.16-.1.31-.16.64-.3,1.16a9.16,9.16,0,0,1-1.93-4.92c-.1-2.39-.17-4.79,1-7a13.1,13.1,0,0,1,4-4.78A12.92,12.92,0,0,1,13.29,3.8,12.34,12.34,0,0,1,27.1,10.34a12.29,12.29,0,0,1,1.34,6.82A11.3,11.3,0,0,1,25.55,24a18.24,18.24,0,0,1-3.2,2.76c-.2.13-.35.36-.62.24s-.23-.41-.2-.63a42.48,42.48,0,0,0,.2-5.17A50,50,0,0,0,20.86,14a6.06,6.06,0,0,0-.94-2.21c-.77-1.28-2.75-1-3.49.43a26,26,0,0,0-1.66,4.86C14.15,19.26,14.08,21.55,13.2,23.82Z"/><path class="cls-1" d="M18.18,14A4.39,4.39,0,0,1,19,16.73c.1,1.37.29,2.75.26,4.14a59,59,0,0,1-.21,6.65c-.07.54-.25.74-.8.82a13.35,13.35,0,0,1-7.81-1.08,16.71,16.71,0,0,1-2.64-1.7C7,24.91,7.55,24,7.7,23.3c.32-1.37.66-2.75,1-4.13.06-.27.14-.7.49-.68s.23.43.3.68c.64,2.14.89,4.4,1.83,6.46.38.82.87,1.57,1.79,1.63A1.93,1.93,0,0,0,15,25.82a20.13,20.13,0,0,0,1.21-4.15A33.69,33.69,0,0,1,18.18,14Z"/></svg>